HIERARCHY
ROOT Pelvis
{
	OFFSET 0.000000 0.000000 0.000000
	CHANNELS 6 Xposition Yposition Zposition Xrotation Yrotation Zrotation
	JOINT LeftUpLeg_virtual
	{
		OFFSET 0.000000 0.000000 0.000000
		CHANNELS 3 Xrotation Yrotation Zrotation
		JOINT LeftUpLeg
		{
			OFFSET 8.479700 -4.795502 -0.379100
			CHANNELS 3 Xrotation Yrotation Zrotation
			JOINT LeftLeg
			{
				OFFSET 0.024144 -32.555107 0.112900
				CHANNELS 3 Xrotation Yrotation Zrotation
				JOINT LeftFoot
				{
					OFFSET -0.024144 -32.638630 -3.012600
					CHANNELS 3 Xrotation Yrotation Zrotation
					JOINT LeftToeBase
					{
						OFFSET 0.970200 -13.225400 11.864200
						CHANNELS 3 Xrotation Yrotation Zrotation
						End Site
						{
							OFFSET 0 0 0
						}
					}
				}
			}
		}
	}
	JOINT RightUpLeg_virtual
	{
		OFFSET 0.000000 0.000000 0.000000
		CHANNELS 3 Xrotation Yrotation Zrotation
		JOINT RightUpLeg
		{
			OFFSET -8.479700 -4.795502 -0.379100
			CHANNELS 3 Xrotation Yrotation Zrotation
			JOINT RightLeg
			{
				OFFSET -0.023144 -32.555092 0.112900
				CHANNELS 3 Xrotation Yrotation Zrotation
				JOINT RightFoot
				{
					OFFSET 0.023144 -32.638641 -3.012700
					CHANNELS 3 Xrotation Yrotation Zrotation
					JOINT RightToeBase
					{
						OFFSET -0.970200 -13.225400 11.864200
						CHANNELS 3 Xrotation Yrotation Zrotation
						End Site
						{
							OFFSET 0 0 0
						}
					}
				}
			}
		}
	}
	JOINT Hips_virtual
	{
		OFFSET 0.000000 0.000000 0.000000
		CHANNELS 3 Xrotation Yrotation Zrotation
		JOINT Hips
		{
			OFFSET -0.000000 -0.000000 -0.000000
			CHANNELS 3 Xrotation Yrotation Zrotation
			JOINT Spine
			{
				OFFSET 0.000000 7.722000 1.166200
				CHANNELS 3 Xrotation Yrotation Zrotation
				JOINT Spine1
				{
					OFFSET 0.000000 12.024101 0.248800
					CHANNELS 3 Xrotation Yrotation Zrotation
					JOINT Spine2
					{
						OFFSET 0.000000 11.502998 -0.491200
						CHANNELS 3 Xrotation Yrotation Zrotation
						JOINT Neck_virtual
						{
							OFFSET 0.000000 0.000000 0.000000
							CHANNELS 3 Xrotation Yrotation Zrotation
							JOINT Neck
							{
								OFFSET 0.000000 18.430702 -3.123100
								CHANNELS 3 Xrotation Yrotation Zrotation
								JOINT Head
								{
									OFFSET 0.000000 9.051102 1.034000
									CHANNELS 3 Xrotation Yrotation Zrotation
									End Site
									{
										OFFSET 0 0 0
									}
								}
							}
						}
						JOINT LeftShoulder_virtual
						{
							OFFSET 0.000000 0.000000 0.000000
							CHANNELS 3 Xrotation Yrotation Zrotation
							JOINT LeftShoulder
							{
								OFFSET 6.197800 13.665199 -4.064700
								CHANNELS 3 Xrotation Yrotation Zrotation
								JOINT LeftArm
								{
									OFFSET 7.778100 -0.187103 -1.709300
									CHANNELS 3 Xrotation Yrotation Zrotation
									JOINT LeftForeArm
									{
										OFFSET 22.049376 0.000000 0.000000
										CHANNELS 3 Xrotation Yrotation Zrotation
										JOINT LeftHand
										{
											OFFSET 23.009392 0.000000 0.000000
											CHANNELS 3 Xrotation Yrotation Zrotation
											End Site
											{
												OFFSET 0 0 0
											}
										}
									}
								}
							}
						}
						JOINT RightShoulder_virtual
						{
							OFFSET 0.000000 0.000000 0.000000
							CHANNELS 3 Xrotation Yrotation Zrotation
							JOINT RightShoulder
							{
								OFFSET -6.197800 13.665199 -4.064700
								CHANNELS 3 Xrotation Yrotation Zrotation
								JOINT RightArm
								{
									OFFSET -7.778100 -0.187103 -1.709300
									CHANNELS 3 Xrotation Yrotation Zrotation
									JOINT RightForeArm
									{
										OFFSET -22.049376 0.000000 0.000000
										CHANNELS 3 Xrotation Yrotation Zrotation
										JOINT RightHand
										{
											OFFSET -23.009392 0.000000 0.000000
											CHANNELS 3 Xrotation Yrotation Zrotation
											End Site
											{
												OFFSET 0 0 0
											}
										}
									}
								}
							}
						}
					}
				}
			}
		}
	}
}
MOTION
Frames: 12
Frame Time: 0.03333333
0.023111 63.713249 1.109324 0.000000 0.000000 0.000000 16.582509 -8.313390 -5.304684 -82.846295 -2.209456 4.151656 50.474613 8.081375 -4.040710 9.900462 25.706291 11.070631 0.000000 0.000000 0.000000 16.582509 -8.313390 -5.304684 4.589927 -16.423808 4.012959 48.808832 -8.743947 10.164723 -25.450055 -10.294219 13.442069 0.000000 0.000000 0.000000 16.582509 -8.313390 -5.304684 0.000002 0.000000 0.000000 10.706730 14.018183 -8.101299 2.878198 4.087948 -0.126405 0.000000 0.000000 0.000000 2.848463 4.312291 -0.311449 -0.690423 -2.335956 4.374014 0.000000 0.000000 0.000000 2.848463 4.312291 -0.311449 1.187663 -1.370111 -14.873633 -9.759254 30.208400 -41.048853 0.000012 -11.762797 -0.000011 0.000000 0.000000 0.000000 2.848463 4.312291 -0.311449 2.870343 11.957085 -6.152307 -33.803679 70.877542 6.927822 179.999090 85.290355 -179.999062 0.000000 0.000000 0.000000 
-0.477553 63.781342 2.266485 0.000000 0.000000 0.000000 18.143361 -8.032331 -5.294825 -84.616345 -2.303984 4.258249 52.552585 7.426627 -3.943919 8.336875 25.638064 10.494688 0.000000 0.000000 0.000000 18.143361 -8.032331 -5.294825 -1.594251 -15.825354 1.358803 54.304075 -8.570503 10.111025 -22.606348 -10.971534 14.516232 0.000000 0.000000 0.000000 18.143361 -8.032331 -5.294825 -0.000001 0.000001 0.000001 11.175860 13.526288 -8.308192 2.886035 3.978104 -0.232994 0.000000 0.000000 0.000000 2.857348 4.195420 -0.413709 -0.775485 -2.317383 4.285785 0.000000 0.000000 0.000000 2.857348 4.195420 -0.413709 1.200890 -1.794893 -15.693770 -10.576659 29.125139 -39.831645 -0.000002 -14.202309 0.000013 0.000000 0.000000 0.000000 2.857348 4.195420 -0.413709 2.895097 12.404895 -5.753555 -30.219967 69.244253 3.681439 179.999868 83.877626 -179.999868 0.000000 0.000000 0.000000 
-0.936688 63.861710 3.431164 0.000000 0.000000 0.000000 19.744713 -7.757168 -5.296225 -86.310819 -2.396812 4.340266 54.455097 6.806070 -3.851196 6.796796 25.583011 9.979642 0.000000 0.000000 0.000000 19.744713 -7.757168 -5.296225 -7.403475 -15.013709 -1.306634 58.742980 -7.976908 10.054004 -18.647035 -11.478344 15.443263 0.000000 0.000000 0.000000 19.744713 -7.757168 -5.296225 0.000001 0.000000 0.000000 11.653820 12.998031 -8.549868 2.894025 3.864282 -0.347311 0.000000 0.000000 0.000000 2.866431 4.074821 -0.524101 -0.868217 -2.297582 4.191816 0.000000 0.000000 0.000000 2.866431 4.074821 -0.524101 1.202242 -2.183949 -16.571265 -11.438026 28.007288 -38.630853 -0.000003 -16.749029 -0.000006 0.000000 0.000000 0.000000 2.866431 4.074821 -0.524101 2.921963 12.894764 -5.335064 -27.021031 67.470268 0.787288 179.999773 82.416355 -179.999773 0.000000 0.000000 0.000000 
-1.362312 63.949776 4.600031 0.000000 0.000000 0.000000 21.381818 -7.486502 -5.306060 -87.940817 -2.486547 4.401271 56.205080 6.214762 -3.761767 5.280321 25.538887 9.514261 0.000000 0.000000 0.000000 21.381818 -7.486502 -5.306060 -12.835180 -14.052129 -3.936591 62.149073 -6.939955 9.988320 -13.888175 -11.835257 16.137393 0.000000 0.000000 0.000000 21.381818 -7.486502 -5.306060 -0.000001 0.000000 -0.000001 12.137308 12.438568 -8.820669 2.901923 3.747263 -0.467801 0.000000 0.000000 0.000000 2.875554 3.951232 -0.641008 -0.967457 -2.276754 4.092981 0.000000 0.000000 0.000000 2.875554 3.951232 -0.641008 1.192189 -2.545271 -17.494051 -12.336925 26.855255 -37.455145 0.000003 -19.379955 0.000005 0.000000 0.000000 0.000000 2.875554 3.951232 -0.641008 2.947553 13.415551 -4.901027 -24.203554 65.584050 -1.746860 179.999923 80.919286 -179.999923 0.000000 0.000000 0.000000 
-1.762921 64.043060 5.771744 0.000000 0.000000 0.000000 23.049780 -7.218293 -5.323096 -89.512723 -2.576254 4.444677 57.821069 5.647493 -3.675773 3.787534 25.505786 9.086240 0.000000 0.000000 0.000000 23.049780 -7.218293 -5.323096 -17.876970 -13.005992 -6.496299 64.555915 -5.461655 9.927112 -8.653827 -12.110637 16.593244 0.000000 0.000000 0.000000 23.049780 -7.218293 -5.323096 0.000000 0.000000 0.000000 12.625250 11.847125 -9.120888 2.909749 3.626956 -0.594640 0.000000 0.000000 0.000000 2.880762 3.824573 -0.764597 -1.073813 -2.254800 3.988819 0.000000 0.000000 0.000000 2.880762 3.824573 -0.764597 1.171181 -2.879761 -18.461091 -13.275131 25.668662 -36.310686 -0.000002 -22.092950 -0.000005 0.000000 0.000000 0.000000 2.880762 3.824573 -0.764597 2.970383 13.964331 -4.451078 -21.721552 63.600290 -3.964433 179.999814 79.388853 -179.999841 0.000000 0.000000 0.000000 
-2.146804 64.141098 6.946865 0.000000 0.000000 0.000000 24.743590 -6.950314 -5.347884 -91.027550 -2.667303 4.475727 59.316272 5.097342 -3.592714 2.317076 25.482734 8.685637 0.000000 0.000000 0.000000 24.743590 -6.950314 -5.347884 -22.528756 -11.949471 -8.963361 66.055456 -3.613986 9.885124 -3.286502 -12.372053 16.892531 0.000000 0.000000 0.000000 24.743590 -6.950314 -5.347884 0.000002 0.000000 0.000000 13.114400 11.227779 -9.442921 2.917319 3.503997 -0.726576 0.000000 0.000000 0.000000 2.883030 3.695422 -0.893562 -1.186566 -2.231818 3.879854 0.000000 0.000000 0.000000 2.883030 3.695422 -0.893562 1.139408 -3.199048 -19.454392 -14.244515 24.450482 -35.210691 -0.000001 -24.857630 -0.000002 0.000000 0.000000 0.000000 2.883030 3.695422 -0.893562 2.987625 14.530118 -3.989387 -19.551058 61.547723 -5.879259 -179.999991 77.836453 179.999991 0.000000 0.000000 0.000000 
-2.521341 64.244980 8.127446 0.000000 0.000000 0.000000 26.457899 -6.680677 -5.382595 -92.482831 -2.761064 4.500407 60.700431 4.557198 -3.511894 0.866331 25.468336 8.304567 0.000000 0.000000 0.000000 26.457899 -6.680677 -5.382595 -26.817469 -10.943779 -11.335492 66.812391 -1.551209 9.867112 1.874637 -12.660380 17.159703 0.000000 0.000000 0.000000 26.457899 -6.680677 -5.382595 -0.000001 0.000000 -0.000001 13.600970 10.586769 -9.775797 2.924563 3.379235 -0.861975 0.000000 0.000000 0.000000 2.884694 3.564588 -1.026169 -1.304602 -2.207995 3.766922 0.000000 0.000000 0.000000 2.884694 3.564588 -1.026169 1.096428 -3.521313 -20.445157 -15.229198 23.206449 -34.170617 0.000006 -27.626403 0.000003 0.000000 0.000000 0.000000 2.884694 3.564588 -1.026169 2.996289 15.098582 -3.522288 -17.670189 59.461592 -7.500030 179.999991 76.276438 179.999991 0.000000 0.000000 0.000000 
-2.892503 64.356941 9.316593 0.000000 0.000000 0.000000 28.187234 -6.408317 -5.430787 -93.872508 -2.859824 4.524751 61.979431 4.020416 -3.432705 -0.567841 25.461863 7.936674 0.000000 0.000000 0.000000 28.187234 -6.408317 -5.430787 -30.824367 -9.987713 -13.670499 67.327524 0.327205 9.856378 6.190428 -13.039299 17.618937 0.000000 0.000000 0.000000 28.187234 -6.408317 -5.430787 0.000000 0.000000 0.000000 14.081776 9.931107 -10.108455 2.931311 3.253431 -0.999344 0.000000 0.000000 0.000000 2.885750 3.432765 -1.160851 -1.427201 -2.179194 3.651656 0.000000 0.000000 0.000000 2.885750 3.432765 -1.160851 1.041219 -3.864787 -21.403670 -16.210556 21.943405 -33.200464 -0.000008 -30.348173 0.000003 0.000000 0.000000 0.000000 2.885750 3.432765 -1.160851 2.993668 15.654872 -3.055246 -16.053081 57.378937 -8.839468 179.999937 74.724141 -179.999950 0.000000 0.000000 0.000000 
-3.264596 64.479675 10.517729 0.000000 0.000000 0.000000 29.925709 -6.133269 -5.496919 -95.188556 -2.967014 4.554328 63.156717 3.481469 -3.354649 -1.988750 25.462790 7.577299 0.000000 0.000000 0.000000 29.925709 -6.133269 -5.496919 -34.669255 -9.045230 -16.020665 68.051552 1.598185 9.816615 9.226825 -13.516566 18.266547 0.000000 0.000000 0.000000 29.925709 -6.133269 -5.496919 0.000002 0.000000 0.000000 14.554436 9.268317 -10.430616 2.937502 3.127209 -1.137488 0.000000 0.000000 0.000000 2.886217 3.300545 -1.296319 -1.553396 -2.149420 3.533781 0.000000 0.000000 0.000000 2.886217 3.300545 -1.296319 0.972924 -4.240739 -22.310089 -17.174758 20.666807 -32.298718 0.000013 -32.983851 0.000001 0.000000 0.000000 0.000000 2.886217 3.300545 -1.296319 2.977416 16.185236 -2.589786 -14.668367 55.337284 -9.918510 179.999909 73.194909 -179.999923 0.000000 0.000000 0.000000 
-3.640185 64.616226 11.734352 0.000000 0.000000 0.000000 31.667240 -5.856853 -5.586179 -96.421391 -3.086282 4.594352 64.233414 2.935911 -3.277261 -3.399790 25.471082 7.223624 0.000000 0.000000 0.000000 31.667240 -5.856853 -5.586179 -38.324956 -8.232145 -18.204237 68.230011 2.534661 9.742477 11.818781 -13.916849 18.570859 0.000000 0.000000 0.000000 31.667240 -5.856853 -5.586179 0.000002 0.000000 0.000000 15.017284 8.607254 -10.732347 2.943072 3.001143 -1.275257 0.000000 0.000000 0.000000 2.886158 3.168465 -1.431418 -1.682481 -2.119151 3.413678 0.000000 0.000000 0.000000 2.886158 3.168465 -1.431418 0.891421 -4.650248 -23.159568 -18.119857 19.379407 -31.455634 0.000004 -35.515792 0.000007 0.000000 0.000000 0.000000 2.886158 3.168465 -1.431418 2.946133 16.679795 -2.122820 -13.478599 53.368701 -10.769787 179.999950 71.701837 -179.999950 0.000000 0.000000 0.000000 
-4.021747 64.766846 12.966442 0.000000 0.000000 0.000000 33.405472 -5.581462 -5.700857 -97.565837 -3.221318 4.649162 65.210773 2.381986 -3.199935 -4.799515 25.486839 6.872171 0.000000 0.000000 0.000000 33.405472 -5.581462 -5.700857 -41.782313 -7.557303 -20.195857 67.866836 3.050009 9.648004 13.956400 -14.250079 18.490357 0.000000 0.000000 0.000000 33.405472 -5.581462 -5.700857 -0.000003 0.000000 0.000000 15.469508 7.957327 -11.006916 2.948003 2.875841 -1.411498 0.000000 0.000000 0.000000 2.885583 3.037097 -1.564909 -1.813825 -2.088571 3.291834 0.000000 0.000000 0.000000 2.885583 3.037097 -1.564909 0.796813 -5.090577 -23.953038 -19.053815 18.083725 -30.668273 -0.000006 -37.941202 -0.000008 0.000000 0.000000 0.000000 2.885583 3.037097 -1.564909 2.899947 17.134339 -1.652072 -12.446652 51.490832 -11.431073 179.999964 70.250859 -179.999964 0.000000 0.000000 0.000000 
-4.413470 64.928406 14.209511 0.000000 0.000000 0.000000 35.133749 -5.309465 -5.839218 -98.622454 -3.375607 4.722394 66.091663 1.820280 -3.121910 -6.180449 25.510890 6.516740 0.000000 0.000000 0.000000 35.133749 -5.309465 -5.839218 -45.043612 -6.992710 -22.030681 67.101746 3.139600 9.555599 15.633968 -14.543196 18.076324 0.000000 0.000000 0.000000 35.133749 -5.309465 -5.839218 0.000000 0.000000 0.000000 15.911117 7.327143 -11.251406 2.952212 2.751941 -1.544975 0.000000 0.000000 0.000000 2.884487 2.907030 -1.695464 -1.946669 -2.057720 3.168820 0.000000 0.000000 0.000000 2.884487 2.907030 -1.695464 0.687812 -5.571030 -24.673427 -19.977733 16.788788 -29.955837 0.000005 -40.242856 -0.000004 0.000000 0.000000 0.000000 2.884487 2.907030 -1.695464 2.840100 17.545376 -1.186536 -11.552100 49.708686 -11.920618 179.999964 68.841128 -179.999964 0.000000 0.000000 0.000000 
